<svg xmlns="http://www.w3.org/2000/svg" width="100" height="80" viewBox="0 0 248 80" fill="#fff">
  <path d="M84.7111 36.6777H71.4835C71.4835 37.9574 71.8973 38.9058 72.7273 39.5242C73.5562 40.1401 74.4567 40.4475 75.4303 40.4475C76.4504 40.4475 77.2553 40.3123 77.8462 40.0408C78.4394 39.7669 79.1151 39.2264 79.8746 38.4191L84.4241 40.6962C82.5297 43.8704 79.377 45.4563 74.9662 45.4563C72.2166 45.4563 69.8582 44.5162 67.8908 42.6337C65.9258 40.7488 64.9438 38.4801 64.9438 35.8262C64.9438 33.1699 65.9258 30.8939 67.8908 28.9995C69.8582 27.1026 72.2166 26.153 74.9662 26.153C77.8581 26.153 80.2106 26.989 82.0226 28.6598C83.8369 30.3318 84.7446 32.7202 84.7446 35.8262C84.7446 36.2507 84.7327 36.5342 84.7111 36.6777ZM71.6605 33.195H78.5925C78.4513 32.2478 78.0782 31.5194 77.473 31.0087C76.8702 30.4992 76.0952 30.2433 75.148 30.2433C74.1051 30.2433 73.2739 30.516 72.6556 31.0613C72.0396 31.6067 71.7084 32.3183 71.6605 33.195Z" fill="#214780"/>
  <path d="M80.4447 32.5563H78.4629C78.3122 32.5563 78.1831 32.6101 78.0754 32.7166L77.0194 33.7726H75.4203C75.3474 33.7726 75.278 33.787 75.211 33.8145C75.144 33.8432 75.0842 33.8827 75.0328 33.9341C74.9814 33.9855 74.9419 34.0441 74.9144 34.1111C74.8869 34.1781 74.8726 34.2486 74.8726 34.3204C74.8726 34.3934 74.8869 34.4639 74.9144 34.5309C74.9419 34.5979 74.9814 34.6565 75.0328 34.7079C75.0842 34.7593 75.144 34.7988 75.211 34.8263C75.278 34.855 75.3474 34.8682 75.4203 34.8682H77.2466C77.3973 34.8682 77.5265 34.8155 77.6341 34.7079L78.6902 33.6518H80.4447C80.4889 33.7834 80.5463 33.909 80.6193 34.0274C80.6922 34.147 80.7783 34.2546 80.8764 34.3527C80.9745 34.452 81.0833 34.5369 81.2017 34.6098C81.3213 34.6816 81.4469 34.7402 81.5785 34.7833C81.7112 34.8251 81.8476 34.8526 81.9863 34.8634C82.125 34.8741 82.2626 34.8682 82.4001 34.8466C82.5376 34.8251 82.6704 34.7868 82.7996 34.7342C82.9275 34.6804 83.0483 34.6134 83.1608 34.5309C83.2732 34.4496 83.3748 34.3551 83.4657 34.2498C83.5554 34.1434 83.632 34.0286 83.6954 33.9042C83.7587 33.781 83.8066 33.6507 83.8389 33.5155C83.8712 33.3804 83.8879 33.2428 83.8879 33.1041C83.8879 32.9642 83.8712 32.8278 83.8389 32.6915C83.8066 32.5563 83.7587 32.4272 83.6954 32.3028C83.632 32.1784 83.5554 32.0636 83.4657 31.9583C83.3748 31.8519 83.2732 31.7586 83.1608 31.6761C83.0483 31.5947 82.9275 31.5266 82.7996 31.474C82.6704 31.4201 82.5376 31.3831 82.4001 31.3615C82.2626 31.3388 82.125 31.334 81.9863 31.3448C81.8476 31.3556 81.7112 31.3819 81.5785 31.4249C81.4469 31.468 81.3213 31.5254 81.2017 31.5983C81.0833 31.6713 80.9745 31.7562 80.8764 31.8543C80.7783 31.9523 80.6922 32.0612 80.6193 32.1796C80.5463 32.298 80.4889 32.4236 80.4447 32.5563ZM82.1143 32.4343C82.2028 32.4343 82.2889 32.4511 82.3702 32.4858C82.4527 32.5192 82.5245 32.5683 82.5879 32.6305C82.6501 32.6927 82.6991 32.7656 82.7326 32.8481C82.7673 32.9295 82.784 33.0156 82.784 33.1041C82.784 33.1926 82.7673 33.2775 82.7326 33.36C82.6991 33.4426 82.6501 33.5143 82.5879 33.5777C82.5245 33.6399 82.4527 33.6877 82.3702 33.7224C82.2889 33.7559 82.2028 33.7726 82.1143 33.7726C82.0258 33.7726 81.9408 33.7559 81.8583 33.7224C81.7758 33.6877 81.704 33.6399 81.6407 33.5777C81.5785 33.5143 81.5294 33.4426 81.4959 33.36C81.4625 33.2775 81.4445 33.1926 81.4445 33.1041C81.4445 33.0156 81.4625 32.9295 81.4959 32.8481C81.5294 32.7656 81.5785 32.6927 81.6407 32.6305C81.704 32.5683 81.7758 32.5192 81.8583 32.4858C81.9408 32.4511 82.0258 32.4343 82.1143 32.4343Z" fill="white"/>
  <path d="M82.114 36.8164C81.9287 36.8164 81.7481 36.8451 81.5711 36.9037C81.3953 36.9611 81.2326 37.0448 81.0819 37.1537C80.9324 37.2637 80.8032 37.3929 80.6944 37.5436C80.5856 37.6931 80.5019 37.8569 80.4444 38.0327H78.4304V36.7674C78.4304 36.6944 78.4161 36.625 78.3885 36.5581C78.361 36.4899 78.3216 36.4313 78.2701 36.3799C78.2187 36.3284 78.1589 36.289 78.0919 36.2615C78.025 36.234 77.9556 36.2196 77.8826 36.2196L75.4201 36.2076C75.3483 36.2076 75.2778 36.2208 75.2108 36.2495C75.1438 36.277 75.0852 36.3165 75.0338 36.3679C74.9824 36.4193 74.9429 36.4779 74.9154 36.5461C74.8867 36.6131 74.8735 36.6824 74.8735 36.7554C74.8735 36.8272 74.8867 36.8977 74.9154 36.9647C74.9429 37.0317 74.9824 37.0903 75.0338 37.1417C75.0852 37.1931 75.1438 37.2326 75.2108 37.2613C75.2778 37.2888 75.3483 37.302 75.4201 37.3032L77.3373 37.3115V38.5805C77.3373 38.6534 77.3516 38.7228 77.3791 38.7898C77.4066 38.8568 77.4461 38.9166 77.4975 38.968C77.549 39.0194 77.6088 39.0589 77.6757 39.0864C77.7427 39.1139 77.8121 39.1282 77.885 39.1282H80.4468C80.4815 39.2311 80.5246 39.3292 80.576 39.4237C80.6274 39.5181 80.6872 39.6078 80.7554 39.6904C80.8248 39.7741 80.8989 39.8506 80.9814 39.9212C81.064 39.9906 81.1525 40.0515 81.2458 40.1054C81.339 40.1592 81.4371 40.2034 81.5388 40.2393C81.6404 40.2752 81.7445 40.3015 81.8509 40.3171C81.9586 40.3338 82.065 40.341 82.1726 40.3374C82.2815 40.3338 82.3879 40.3206 82.4932 40.2979C82.5984 40.2752 82.7013 40.2429 82.8005 40.201C82.8998 40.1592 82.9943 40.109 83.0852 40.0503C83.1749 39.9906 83.2586 39.9248 83.3375 39.8494C83.4153 39.7753 83.4858 39.6939 83.5492 39.6066C83.6114 39.5193 83.6664 39.4272 83.7119 39.3292C83.7585 39.2311 83.7956 39.1306 83.8231 39.0266C83.8506 38.9225 83.8686 38.8161 83.8757 38.7085C83.8841 38.6008 83.8829 38.4932 83.871 38.3867C83.859 38.2791 83.8375 38.1738 83.8064 38.071C83.7753 37.9669 83.7358 37.8677 83.6868 37.772C83.6365 37.6763 83.5791 37.5854 83.5134 37.5005C83.4476 37.4144 83.3746 37.3355 83.2933 37.2637C83.2132 37.1919 83.127 37.1286 83.035 37.0723C82.9429 37.0161 82.846 36.9695 82.7455 36.9312C82.6451 36.8929 82.541 36.863 82.4346 36.8439C82.3293 36.8248 82.2217 36.8152 82.114 36.8164ZM82.114 39.2502C82.0255 39.2502 81.9406 39.2335 81.8581 39.1988C81.7756 39.1653 81.7038 39.1163 81.6404 39.0541C81.5782 38.9907 81.5292 38.9189 81.4957 38.8364C81.4622 38.7551 81.4443 38.669 81.4443 38.5805C81.4443 38.492 81.4622 38.4059 81.4957 38.3245C81.5292 38.242 81.5782 38.1703 81.6404 38.1069C81.7038 38.0447 81.7756 37.9956 81.8581 37.9622C81.9406 37.9287 82.0255 37.9107 82.114 37.9107C82.2025 37.9107 82.2887 37.9287 82.37 37.9622C82.4525 37.9956 82.5243 38.0447 82.5877 38.1069C82.6498 38.1703 82.6989 38.242 82.7324 38.3245C82.7671 38.4059 82.7838 38.492 82.7838 38.5805C82.7838 38.669 82.7671 38.7551 82.7324 38.8364C82.6989 38.9189 82.6498 38.9907 82.5877 39.0541C82.5243 39.1163 82.4525 39.1653 82.37 39.1988C82.2887 39.2335 82.2025 39.2502 82.114 39.2502Z" fill="white"/>
  <path d="M80.2172 41.0753C79.8728 41.0765 79.5558 41.171 79.2664 41.3588L78.2199 40.5754C78.1218 40.5036 78.013 40.4666 77.891 40.4666H75.4201C75.3483 40.4666 75.2778 40.4809 75.2108 40.5084C75.1438 40.5371 75.0852 40.5766 75.0338 40.628C74.9824 40.6794 74.9429 40.738 74.9154 40.805C74.8867 40.872 74.8735 40.9426 74.8735 41.0143C74.8735 41.0873 74.8867 41.1566 74.9154 41.2236C74.9429 41.2906 74.9824 41.3504 75.0338 41.4018C75.0852 41.4532 75.1438 41.4927 75.2108 41.5202C75.2778 41.5489 75.3483 41.5621 75.4201 41.5621H77.7116L78.5739 42.2091C78.4938 42.4112 78.4531 42.6217 78.4531 42.8406C78.4531 42.9566 78.4639 43.0714 78.4866 43.185C78.5093 43.2987 78.5428 43.4087 78.5871 43.5151C78.6313 43.6228 78.6851 43.7244 78.7497 43.8213C78.8143 43.917 78.8873 44.0067 78.9698 44.088C79.0511 44.1705 79.1408 44.2435 79.2365 44.3081C79.3334 44.3715 79.435 44.4265 79.5415 44.4707C79.6491 44.515 79.7591 44.5485 79.8728 44.5712C79.9864 44.5939 80.1012 44.6047 80.2172 44.6047C80.3332 44.6047 80.448 44.5939 80.5617 44.5712C80.6753 44.5485 80.7853 44.515 80.8929 44.4707C80.9994 44.4265 81.101 44.3715 81.1979 44.3081C81.2936 44.2435 81.3833 44.1705 81.4658 44.088C81.5471 44.0067 81.6201 43.917 81.6847 43.8213C81.7493 43.7244 81.8031 43.6228 81.8473 43.5151C81.8916 43.4087 81.9251 43.2987 81.9478 43.185C81.9705 43.0714 81.9825 42.9566 81.9825 42.8406C81.9825 42.7246 81.9705 42.6098 81.9478 42.4961C81.9251 42.3825 81.8916 42.2725 81.8473 42.1649C81.8031 42.0584 81.7493 41.9568 81.6847 41.8599C81.6201 41.763 81.5471 41.6745 81.4658 41.592C81.3833 41.5107 81.2936 41.4377 81.1979 41.3731C81.101 41.3085 80.9994 41.2547 80.8929 41.2105C80.7853 41.165 80.6753 41.1315 80.5617 41.11C80.448 41.0873 80.3332 41.0753 80.2172 41.0753ZM80.2172 43.5091C80.1287 43.5091 80.0438 43.4924 79.9613 43.4589C79.8787 43.4242 79.807 43.3764 79.7436 43.3142C79.6814 43.2508 79.6324 43.1791 79.5989 43.0965C79.5654 43.014 79.5475 42.9291 79.5475 42.8406C79.5475 42.7521 79.5654 42.666 79.5989 42.5846C79.6324 42.5021 79.6814 42.4292 79.7436 42.367C79.807 42.3048 79.8787 42.2558 79.9613 42.2223C80.0438 42.1876 80.1287 42.1708 80.2172 42.1708C80.3057 42.1708 80.3918 42.1876 80.4731 42.2223C80.5557 42.2558 80.6274 42.3048 80.6908 42.367C80.753 42.4292 80.802 42.5021 80.8355 42.5846C80.8702 42.666 80.887 42.7521 80.887 42.8406C80.887 42.9291 80.8702 43.014 80.8355 43.0965C80.802 43.1791 80.753 43.2508 80.6908 43.3142C80.6274 43.3764 80.5557 43.4242 80.4731 43.4589C80.3918 43.4924 80.3057 43.5091 80.2172 43.5091Z" fill="white"/>
  <mask id="mask0_619_2138" style="mask-type:luminance" maskUnits="userSpaceOnUse" x="74" y="26" width="9" height="5">
    <path d="M74.7061 26.3492H82.0542V30.8963H74.7061V26.3492Z" fill="white"/>
  </mask>
  <g mask="url(#mask0_619_2138)">
    <path d="M74.8721 30.0615C74.8721 30.1332 74.8864 30.2038 74.9139 30.2708C74.9414 30.3378 74.9809 30.3976 75.0323 30.449C75.0838 30.4992 75.1436 30.5399 75.2105 30.5674C75.2775 30.5949 75.3469 30.6093 75.4198 30.6093H77.8537C77.9721 30.6093 78.0797 30.5746 78.1754 30.5052L79.2948 29.6919C79.4037 29.7661 79.5185 29.8271 79.6393 29.8749C79.7613 29.9228 79.8868 29.9574 80.016 29.9766C80.1452 29.9969 80.2743 30.0029 80.4047 29.9945C80.5351 29.9861 80.663 29.9634 80.7886 29.9263C80.9142 29.8893 81.0338 29.839 81.1474 29.7745C81.2622 29.7111 81.3675 29.6357 81.4655 29.5484C81.5624 29.4611 81.6497 29.3642 81.7251 29.2578C81.8016 29.1513 81.8638 29.0377 81.9152 28.9181C81.9655 28.7973 82.0025 28.6729 82.0253 28.5438C82.048 28.4158 82.0576 28.2854 82.0516 28.1551C82.0456 28.0247 82.0253 27.8968 81.9906 27.77C81.9571 27.6444 81.9093 27.5236 81.8483 27.4076C81.7861 27.2916 81.7131 27.1851 81.6282 27.0859C81.5433 26.9866 81.4488 26.8969 81.3436 26.8192C81.2395 26.7414 81.1271 26.6757 81.0075 26.6218C80.8879 26.5692 80.7647 26.5297 80.6367 26.5034C80.5088 26.4783 80.3784 26.4664 80.248 26.4687C80.1177 26.4723 79.9885 26.4891 79.8617 26.5214C79.735 26.5525 79.613 26.5979 79.4958 26.6565C79.3797 26.7151 79.2709 26.7857 79.1693 26.8694C79.0688 26.9519 78.9779 27.0452 78.8978 27.1481C78.8164 27.2509 78.7483 27.361 78.6933 27.4794C78.637 27.5978 78.5952 27.7209 78.5665 27.8477C78.5378 27.9757 78.5234 28.1049 78.5234 28.2352C78.5258 28.4373 78.5617 28.6323 78.6311 28.8213L77.6767 29.5137H75.4198C75.3469 29.5137 75.2775 29.5269 75.2105 29.5556C75.1436 29.5831 75.0838 29.6226 75.0323 29.674C74.9809 29.7254 74.9414 29.784 74.9139 29.851C74.8864 29.9192 74.8721 29.9885 74.8721 30.0615ZM80.2887 27.5667C80.3772 27.5667 80.4621 27.5834 80.5446 27.6169C80.626 27.6516 80.6989 27.6994 80.7611 27.7628C80.8245 27.825 80.8723 27.8979 80.907 27.9793C80.9405 28.0618 80.9573 28.1467 80.9573 28.2352C80.9573 28.3249 80.9405 28.4098 80.907 28.4912C80.8723 28.5737 80.8245 28.6466 80.7611 28.7088C80.6989 28.7722 80.626 28.8201 80.5446 28.8535C80.4621 28.8882 80.3772 28.905 80.2887 28.905C80.199 28.905 80.1141 28.8882 80.0316 28.8535C79.9502 28.8201 79.8773 28.7722 79.8151 28.7088C79.7517 28.6466 79.7039 28.5737 79.6704 28.4912C79.6357 28.4098 79.6189 28.3249 79.6189 28.2352C79.6189 28.1467 79.6357 28.0618 79.6704 27.9793C79.7039 27.8979 79.7517 27.825 79.8151 27.7628C79.8773 27.6994 79.9502 27.6516 80.0316 27.6169C80.1141 27.5834 80.199 27.5667 80.2887 27.5667Z" fill="white"/>
  </g>
  <mask id="mask1_619_2138" style="mask-type:luminance" maskUnits="userSpaceOnUse" x="65" y="26" width="11" height="19">
    <path d="M65.6226 26.3492H75.6246V44.6741H65.6226V26.3492Z" fill="white"/>
  </mask>
  <g mask="url(#mask1_619_2138)">
    <path d="M74.8114 43.5092H74.0699L73.851 41.9784C73.8355 41.8659 73.7888 41.7691 73.7123 41.6854C73.6346 41.6016 73.5413 41.5478 73.4312 41.5227C72.7627 41.3684 72.1384 41.1089 71.5571 40.7441C71.4615 40.6843 71.3574 40.6568 71.2438 40.6616C71.1314 40.6664 71.0285 40.7034 70.9388 40.7704L69.6998 41.6997L68.6509 40.6496L69.579 39.4118C69.6459 39.3209 69.683 39.2192 69.6878 39.1056C69.6926 38.992 69.6651 38.8879 69.6041 38.7923C69.2405 38.211 68.981 37.5867 68.8267 36.9181C68.8016 36.8081 68.7466 36.7148 68.664 36.6383C68.5803 36.5617 68.4822 36.5151 68.371 36.4984L66.8402 36.2795V34.7965L68.371 34.5776C68.4834 34.5609 68.5815 34.5154 68.664 34.4377C68.7478 34.3611 68.8016 34.2678 68.8279 34.1578C68.981 33.4892 69.2405 32.8649 69.6053 32.2837C69.6651 32.188 69.6926 32.084 69.6878 31.9703C69.683 31.8567 69.6471 31.7551 69.579 31.6642L68.6509 30.4263L69.6998 29.3762L70.9388 30.3043C71.0285 30.3725 71.1314 30.4084 71.2438 30.4132C71.3574 30.418 71.4615 30.3904 71.5571 30.3306C72.1384 29.9659 72.7627 29.7075 73.4312 29.5533C73.5413 29.5281 73.6346 29.4731 73.7123 29.3906C73.7888 29.3069 73.8355 29.2088 73.851 29.0964L74.0699 27.5667H74.8114C74.8844 27.5667 74.9537 27.5524 75.0219 27.5249C75.0889 27.4962 75.1475 27.4567 75.1989 27.4053C75.2503 27.3538 75.2898 27.2952 75.3173 27.2283C75.3448 27.1613 75.3592 27.0907 75.3592 27.019C75.3592 26.946 75.3448 26.8766 75.3173 26.8085C75.2898 26.7415 75.2503 26.6829 75.1989 26.6315C75.1475 26.58 75.0889 26.5406 75.0219 26.5131C74.9537 26.4843 74.8844 26.4712 74.8114 26.4712H73.5951C73.5293 26.4712 73.4647 26.482 73.4037 26.5059C73.3415 26.5286 73.2853 26.5621 73.2363 26.6051C73.1861 26.6482 73.1454 26.6984 73.1143 26.757C73.082 26.8144 73.0617 26.8754 73.0521 26.9412L72.8189 28.5809C72.2891 28.7316 71.7844 28.9421 71.3036 29.2088L69.9772 28.2149C69.9246 28.1755 69.866 28.1468 69.8026 28.1276C69.7392 28.1085 69.6746 28.1025 69.6089 28.1073C69.5431 28.1109 69.4809 28.1276 69.4211 28.1551C69.3613 28.1826 69.3075 28.2197 69.2608 28.2664L67.5398 29.9874C67.4932 30.034 67.4561 30.0867 67.4286 30.1465C67.4011 30.2075 67.3855 30.2696 67.3807 30.3354C67.376 30.4012 67.3831 30.4658 67.4023 30.5292C67.4202 30.5926 67.4501 30.65 67.4896 30.7038L68.4834 32.0289C68.2143 32.5097 68.005 33.0156 67.8532 33.5443L66.2135 33.7787C66.1489 33.7882 66.0879 33.8086 66.0293 33.8409C65.9719 33.872 65.9216 33.9126 65.8786 33.9629C65.8355 34.0119 65.802 34.0681 65.7793 34.1291C65.7566 34.1913 65.7446 34.2547 65.7446 34.3205V36.7555C65.7446 36.8213 65.7566 36.8847 65.7793 36.9468C65.802 37.0078 65.8355 37.0641 65.8786 37.1143C65.9216 37.1633 65.9731 37.204 66.0305 37.2363C66.0879 37.2674 66.1501 37.2877 66.2147 37.2973L67.8544 37.5317C68.0062 38.0603 68.2155 38.5662 68.4834 39.047L67.4896 40.3734C67.4501 40.426 67.4202 40.4834 67.4023 40.5468C67.3831 40.6102 67.376 40.6747 67.3807 40.7405C67.3855 40.8063 67.4011 40.8685 67.4286 40.9295C67.4561 40.9893 67.4932 41.0419 67.5398 41.0886L69.2608 42.8096C69.3075 42.8562 69.3613 42.8933 69.4211 42.9208C69.4809 42.9483 69.5431 42.9651 69.6089 42.9698C69.6746 42.9734 69.7392 42.9674 69.8026 42.9483C69.866 42.9304 69.9246 42.9005 69.9772 42.861L71.3036 41.8671C71.7844 42.135 72.2891 42.3443 72.8189 42.4962L73.0521 44.1359C73.0617 44.2005 73.082 44.2615 73.1143 44.3201C73.1454 44.3775 73.1861 44.4277 73.2363 44.4708C73.2853 44.5151 73.3415 44.5473 73.4037 44.5701C73.4647 44.594 73.5293 44.6048 73.5951 44.6048H74.8114C74.8844 44.6048 74.9549 44.5916 75.0219 44.5629C75.0889 44.5354 75.1475 44.4959 75.1989 44.4445C75.2503 44.3931 75.2898 44.3345 75.3173 44.2675C75.346 44.2005 75.3592 44.1299 75.3592 44.057C75.3592 43.9852 75.346 43.9147 75.3173 43.8477C75.2898 43.7807 75.2503 43.7221 75.1989 43.6707C75.1475 43.6193 75.0889 43.5798 75.0219 43.5511C74.9549 43.5236 74.8844 43.5092 74.8114 43.5092Z" fill="white"/>
  </g>
  <path d="M74.8112 32.4343C74.8842 32.4343 74.9547 32.42 75.0217 32.3925C75.0887 32.365 75.1473 32.3255 75.1987 32.2741C75.2501 32.2226 75.2896 32.164 75.3171 32.0959C75.3458 32.0289 75.359 31.9595 75.359 31.8866C75.359 31.8136 75.3458 31.7442 75.3171 31.6773C75.2896 31.6103 75.2501 31.5505 75.1987 31.4991C75.1473 31.4476 75.0887 31.4082 75.0217 31.3807C74.9547 31.3532 74.8842 31.3388 74.8112 31.3388C74.5361 31.3388 74.2634 31.3663 73.9919 31.4201C73.7217 31.474 73.4597 31.5529 73.205 31.6581C72.9502 31.7646 72.7087 31.8937 72.479 32.0468C72.2494 32.1999 72.0377 32.3745 71.8428 32.5695C71.6478 32.7644 71.4732 32.9761 71.3201 33.2057C71.167 33.4342 71.0379 33.677 70.9326 33.9317C70.8274 34.1853 70.7472 34.4484 70.6934 34.7187C70.6396 34.989 70.6133 35.2628 70.6133 35.5379C70.6133 35.8142 70.6396 36.0869 70.6934 36.3572C70.7472 36.6275 70.8274 36.8906 70.9326 37.1453C71.0379 37.4001 71.167 37.6417 71.3201 37.8713C71.4732 38.0997 71.6478 38.3126 71.8428 38.5076C72.0377 38.7025 72.2494 38.8759 72.479 39.029C72.7087 39.1821 72.9502 39.3113 73.205 39.4177C73.4597 39.523 73.7217 39.6019 73.9919 39.6557C74.2634 39.7095 74.5361 39.737 74.8112 39.737C74.8842 39.737 74.9547 39.7227 75.0217 39.6952C75.0887 39.6677 75.1473 39.6282 75.1987 39.5768C75.2501 39.5253 75.2896 39.4655 75.3171 39.3986C75.3458 39.3316 75.359 39.2622 75.359 39.1893C75.359 39.1163 75.3458 39.0469 75.3171 38.98C75.2896 38.913 75.2501 38.8532 75.1987 38.8018C75.1473 38.7503 75.0887 38.7109 75.0217 38.6834C74.9547 38.6559 74.8842 38.6415 74.8112 38.6415C74.6079 38.6415 74.4058 38.6212 74.206 38.5817C74.0063 38.5422 73.8125 38.4836 73.6236 38.4047C73.4358 38.327 73.2564 38.2313 73.0878 38.1189C72.9179 38.0052 72.7613 37.8761 72.6166 37.7326C72.473 37.5878 72.3439 37.4312 72.2315 37.2625C72.1178 37.0927 72.0222 36.9133 71.9444 36.7255C71.8667 36.5378 71.8081 36.3428 71.7674 36.1431C71.7279 35.9434 71.7076 35.7412 71.7076 35.5379C71.7076 35.3346 71.7279 35.1325 71.7674 34.9327C71.8081 34.733 71.8667 34.5381 71.9444 34.3503C72.0222 34.1625 72.1178 33.9831 72.2315 33.8133C72.3439 33.6447 72.473 33.488 72.6166 33.3433C72.7613 33.1998 72.9179 33.0706 73.0878 32.957C73.2564 32.8446 73.4358 32.7489 73.6236 32.6711C73.8125 32.5922 74.0063 32.5336 74.206 32.4941C74.4058 32.4547 74.6079 32.4343 74.8112 32.4343Z" fill="white"/>
  <path d="M85.8149 44.3181V23.5653H88.6279V42.0218H99.1191V44.3181H85.8149Z" fill="#214780"/>
  <path d="M117.892 33.7264C117.892 35.8672 117.473 37.7402 116.639 39.3476C115.806 40.9526 114.622 42.1821 113.089 43.036C111.558 43.8911 109.79 44.3181 107.788 44.3181H100.024V23.5653H106.889C110.403 23.5653 113.115 24.4479 115.026 26.2108C116.936 27.9713 117.892 30.4769 117.892 33.7264ZM115.065 33.7264C115.065 31.1527 114.359 29.1912 112.95 27.8422C111.54 26.4931 109.501 25.8185 106.831 25.8185H102.837V42.0648H107.463C108.984 42.0648 110.321 41.7324 111.477 41.065C112.631 40.3952 113.517 39.4325 114.137 38.1755C114.755 36.9197 115.065 35.4367 115.065 33.7264Z" fill="#214780"/>
  <path d="M122.866 44.6147C121.264 44.6147 120.06 44.1925 119.254 43.3469C118.45 42.5026 118.048 41.3424 118.048 39.869C118.048 38.2209 118.59 36.9544 119.675 36.0705C120.758 35.1879 122.509 34.7155 124.928 34.6545L128.506 34.5971V33.7264C128.506 32.4323 128.23 31.5054 127.678 30.9469C127.129 30.386 126.267 30.1049 125.09 30.1049C123.9 30.1049 123.034 30.3059 122.493 30.7077C121.953 31.1096 121.632 31.753 121.526 32.6357L118.756 32.3869C119.206 29.5201 121.336 28.0861 125.148 28.0861C127.15 28.0861 128.657 28.5454 129.669 29.4639C130.679 30.3824 131.185 31.7112 131.185 33.4489V40.3091C131.185 41.0973 131.288 41.6905 131.496 42.0887C131.703 42.4846 132.095 42.682 132.673 42.682C132.928 42.682 133.218 42.6485 133.544 42.5815V44.232C132.876 44.3874 132.194 44.4664 131.496 44.4664C130.513 44.4664 129.799 44.208 129.353 43.6914C128.906 43.1747 128.654 42.3686 128.597 41.2707H128.506C127.829 42.4858 127.042 43.3469 126.143 43.854C125.243 44.3611 124.15 44.6147 122.866 44.6147ZM123.469 42.6245C124.441 42.6245 125.306 42.4045 126.061 41.9644C126.817 41.5218 127.413 40.9143 127.851 40.1417C128.287 39.3703 128.506 38.5773 128.506 37.7641V36.4533L125.602 36.5107C124.355 36.5298 123.409 36.6578 122.765 36.8934C122.124 37.1302 121.632 37.4938 121.287 37.9841C120.945 38.4757 120.775 39.1179 120.775 39.912C120.775 40.7767 121.007 41.4453 121.474 41.9165C121.939 42.3889 122.604 42.6245 123.469 42.6245Z" fill="#214780"/>
  <path d="M146.92 44.3181L135.812 26.6414L135.884 28.0718L135.96 30.5307V44.3181H133.454V23.5653H136.726L147.949 41.3568C147.831 39.4337 147.772 38.0403 147.772 37.1756V23.5653H150.307V44.3181H146.92Z" fill="#D82119"/>
  <path d="M152.215 24.9909V22.4602H154.865V24.9909H152.215ZM152.215 44.3181V28.378H154.865V44.3181H152.215Z" fill="#D82119"/>
  <path d="M166 25.5506C163.7 25.5506 161.912 26.2909 160.637 27.7704C159.361 29.2474 158.724 31.2722 158.724 33.846C158.724 36.3887 159.389 38.4326 160.719 39.979C162.048 41.5266 163.847 42.2992 166.115 42.2992C169.023 42.2992 171.207 40.8617 172.669 37.9841L174.97 39.1323C174.115 40.9215 172.914 42.2837 171.368 43.2178C169.82 44.1494 168.026 44.6147 165.986 44.6147C163.893 44.6147 162.083 44.1817 160.556 43.3134C159.027 42.4428 157.864 41.2013 157.064 39.5867C156.262 37.9698 155.863 36.0562 155.863 33.846C155.863 30.5355 156.755 27.9426 158.542 26.0673C160.331 24.192 162.806 23.2543 165.966 23.2543C168.177 23.2543 170.023 23.6873 171.506 24.5508C172.989 25.4155 174.08 26.6964 174.779 28.3923L172.109 29.2773C171.631 28.0718 170.857 27.1509 169.789 26.5122C168.723 25.8712 167.46 25.5506 166 25.5506Z" fill="#D82119"/>
  <mask id="mask2_619_2138" style="mask-type:luminance" maskUnits="userSpaceOnUse" x="70" y="29" width="12" height="7">
    <path d="M70.5225 29.6967H81.6703V35.1683H70.5225V29.6967Z" fill="white"/>
  </mask>
  <g mask="url(#mask2_619_2138)">
    <path d="M70.5234 35.168C70.5761 32.1374 73.0506 29.6988 76.0955 29.6988C79.1381 29.6988 81.6126 32.1374 81.6653 35.168H70.5234Z" fill="#FEFEFE"/>
  </g>
  <mask id="mask3_619_2138" style="mask-type:luminance" maskUnits="userSpaceOnUse" x="150" y="21" width="8" height="7">
    <path d="M150.637 21.0103H157.062V27.4399H150.637V21.0103Z" fill="white"/>
  </mask>
  <g mask="url(#mask3_619_2138)">
    <path d="M157.018 24.2251C157.018 24.4332 156.998 24.6401 156.957 24.8446C156.916 25.0479 156.856 25.2464 156.776 25.439C156.696 25.6315 156.599 25.8133 156.483 25.9868C156.367 26.1602 156.236 26.3204 156.089 26.4675C155.941 26.6147 155.781 26.7462 155.609 26.8622C155.436 26.977 155.253 27.0751 155.06 27.154C154.869 27.2342 154.67 27.294 154.466 27.3346C154.261 27.3753 154.055 27.3956 153.847 27.3956C153.639 27.3956 153.432 27.3753 153.229 27.3346C153.024 27.294 152.826 27.2342 152.633 27.154C152.442 27.0751 152.259 26.977 152.086 26.8622C151.912 26.7462 151.753 26.6147 151.605 26.4675C151.458 26.3204 151.326 26.1602 151.211 25.9868C151.095 25.8133 150.997 25.6315 150.918 25.439C150.838 25.2464 150.778 25.0479 150.738 24.8446C150.697 24.6401 150.677 24.4332 150.677 24.2251C150.677 24.017 150.697 23.8113 150.738 23.6067C150.778 23.4022 150.838 23.2049 150.918 23.0123C150.997 22.8198 151.095 22.6368 151.211 22.4646C151.326 22.2912 151.458 22.1309 151.605 21.9838C151.753 21.8367 151.912 21.7051 152.086 21.5891C152.259 21.4743 152.442 21.3762 152.633 21.2961C152.826 21.2172 153.024 21.1562 153.229 21.1155C153.432 21.0748 153.639 21.0545 153.847 21.0545C154.055 21.0545 154.261 21.0748 154.466 21.1155C154.67 21.1562 154.869 21.2172 155.06 21.2961C155.253 21.3762 155.436 21.4743 155.609 21.5891C155.781 21.7051 155.941 21.8367 156.089 21.9838C156.236 22.1309 156.367 22.2912 156.483 22.4646C156.599 22.6368 156.696 22.8198 156.776 23.0123C156.856 23.2049 156.916 23.4022 156.957 23.6067C156.998 23.8113 157.018 24.017 157.018 24.2251Z" fill="#8CB9C4"/>
  </g>
  <path d="M156.489 24.2251C156.489 24.3985 156.472 24.5707 156.439 24.7405C156.404 24.9116 156.354 25.0766 156.288 25.2369C156.221 25.3971 156.14 25.549 156.044 25.6937C155.947 25.8373 155.838 25.9712 155.715 26.0932C155.592 26.2164 155.459 26.3264 155.314 26.4221C155.171 26.519 155.018 26.6003 154.858 26.6661C154.697 26.7331 154.532 26.7833 154.362 26.8168C154.193 26.8503 154.02 26.867 153.847 26.867C153.674 26.867 153.501 26.8503 153.332 26.8168C153.162 26.7833 152.997 26.7331 152.836 26.6661C152.676 26.6003 152.523 26.519 152.38 26.4221C152.235 26.3264 152.101 26.2164 151.979 26.0932C151.856 25.9712 151.747 25.8373 151.65 25.6937C151.554 25.549 151.473 25.3971 151.406 25.2369C151.339 25.0766 151.29 24.9116 151.255 24.7405C151.222 24.5707 151.205 24.3985 151.205 24.2251C151.205 24.0516 151.222 23.8806 151.255 23.7096C151.29 23.5398 151.339 23.3747 151.406 23.2145C151.473 23.0542 151.554 22.9023 151.65 22.7576C151.747 22.6129 151.856 22.4801 151.979 22.3569C152.101 22.2349 152.235 22.1249 152.38 22.0292C152.523 21.9324 152.676 21.851 152.836 21.7841C152.997 21.7183 153.162 21.668 153.332 21.6346C153.501 21.5999 153.674 21.5831 153.847 21.5831C154.02 21.5831 154.193 21.5999 154.362 21.6346C154.532 21.668 154.697 21.7183 154.858 21.7841C155.018 21.851 155.171 21.9324 155.314 22.0292C155.459 22.1249 155.592 22.2349 155.715 22.3569C155.838 22.4801 155.947 22.6129 156.044 22.7576C156.14 22.9023 156.221 23.0542 156.288 23.2145C156.354 23.3747 156.404 23.5398 156.439 23.7096C156.472 23.8806 156.489 24.0516 156.489 24.2251Z" fill="#EC704C"/>
  <path d="M155.961 24.2251C155.961 24.3638 155.947 24.5013 155.92 24.6377C155.894 24.774 155.853 24.9056 155.8 25.0347C155.746 25.1627 155.682 25.2847 155.604 25.3995C155.528 25.5155 155.44 25.622 155.342 25.7201C155.244 25.8181 155.136 25.9054 155.022 25.9832C154.906 26.0597 154.784 26.1255 154.656 26.1781C154.528 26.2319 154.396 26.2714 154.26 26.2989C154.123 26.3252 153.986 26.3396 153.847 26.3396C153.708 26.3396 153.571 26.3252 153.435 26.2989C153.298 26.2714 153.167 26.2319 153.039 26.1781C152.91 26.1255 152.789 26.0597 152.673 25.9832C152.558 25.9054 152.45 25.8181 152.352 25.7201C152.254 25.622 152.167 25.5155 152.089 25.3995C152.013 25.2847 151.948 25.1627 151.894 25.0347C151.842 24.9056 151.801 24.774 151.775 24.6377C151.747 24.5013 151.734 24.3638 151.734 24.2251C151.734 24.0863 151.747 23.9488 151.775 23.8136C151.801 23.6773 151.842 23.5445 151.894 23.4166C151.948 23.2886 152.013 23.1666 152.089 23.0518C152.167 22.9358 152.254 22.8293 152.352 22.7313C152.45 22.6332 152.558 22.5447 152.673 22.4682C152.789 22.3904 152.91 22.3258 153.039 22.2732C153.167 22.2194 153.298 22.1799 153.435 22.1524C153.571 22.1249 153.708 22.1118 153.847 22.1118C153.986 22.1118 154.123 22.1249 154.26 22.1524C154.396 22.1799 154.528 22.2194 154.656 22.2732C154.784 22.3258 154.906 22.3904 155.022 22.4682C155.136 22.5447 155.244 22.6332 155.342 22.7313C155.44 22.8293 155.528 22.9358 155.604 23.0518C155.682 23.1666 155.746 23.2886 155.8 23.4166C155.853 23.5445 155.894 23.6773 155.92 23.8136C155.947 23.9488 155.961 24.0863 155.961 24.2251Z" fill="#2A6350"/>
  <path d="M155.432 24.2251C155.432 24.3291 155.422 24.4332 155.402 24.5348C155.382 24.6365 155.352 24.7358 155.311 24.8326C155.272 24.9283 155.222 25.0192 155.165 25.1065C155.108 25.1926 155.042 25.2727 154.968 25.3469C154.895 25.4199 154.815 25.4856 154.727 25.543C154.641 25.6016 154.55 25.6507 154.453 25.6901C154.358 25.7296 154.259 25.7595 154.156 25.7798C154.054 25.8002 153.951 25.8109 153.847 25.8109C153.743 25.8109 153.64 25.8002 153.537 25.7798C153.436 25.7595 153.336 25.7296 153.241 25.6901C153.144 25.6507 153.053 25.6016 152.967 25.543C152.88 25.4856 152.799 25.4199 152.726 25.3469C152.652 25.2727 152.587 25.1926 152.529 25.1065C152.471 25.0192 152.423 24.9283 152.382 24.8326C152.343 24.7358 152.313 24.6365 152.292 24.5348C152.272 24.4332 152.261 24.3291 152.261 24.2251C152.261 24.121 152.272 24.0182 152.292 23.9165C152.313 23.8136 152.343 23.7156 152.382 23.6187C152.423 23.523 152.471 23.4309 152.529 23.3448C152.587 23.2587 152.652 23.1786 152.726 23.1044C152.799 23.0315 152.88 22.9657 152.967 22.9071C153.053 22.8497 153.144 22.8006 153.241 22.7612C153.336 22.7217 153.436 22.6906 153.537 22.6703C153.64 22.6499 153.743 22.6404 153.847 22.6404C153.951 22.6404 154.054 22.6499 154.156 22.6703C154.259 22.6906 154.358 22.7217 154.453 22.7612C154.55 22.8006 154.641 22.8497 154.727 22.9071C154.815 22.9657 154.895 23.0315 154.968 23.1044C155.042 23.1786 155.108 23.2587 155.165 23.3448C155.222 23.4309 155.272 23.523 155.311 23.6187C155.352 23.7156 155.382 23.8136 155.402 23.9165C155.422 24.0182 155.432 24.121 155.432 24.2251Z" fill="#F2BE4B"/>
  <path d="M154.905 24.2251C154.905 24.3662 154.877 24.5001 154.823 24.6305C154.769 24.7597 154.694 24.8733 154.595 24.9726C154.496 25.0718 154.381 25.1484 154.252 25.2022C154.122 25.256 153.987 25.2823 153.847 25.2823C153.707 25.2823 153.572 25.256 153.443 25.2022C153.314 25.1484 153.199 25.0718 153.1 24.9726C153.001 24.8733 152.924 24.7597 152.871 24.6305C152.818 24.5001 152.79 24.3662 152.79 24.2251C152.79 24.0851 152.818 23.95 152.871 23.8208C152.924 23.6917 153.001 23.5768 153.1 23.4788C153.199 23.3795 153.314 23.303 153.443 23.2491C153.572 23.1953 153.707 23.169 153.847 23.169C153.987 23.169 154.122 23.1953 154.252 23.2491C154.381 23.303 154.496 23.3795 154.595 23.4788C154.694 23.5768 154.769 23.6917 154.823 23.8208C154.877 23.95 154.905 24.0851 154.905 24.2251Z" fill="#EC704C"/>
  <path d="M154.376 24.2251C154.376 24.2956 154.362 24.3626 154.335 24.4272C154.309 24.493 154.27 24.5492 154.22 24.5994C154.171 24.6484 154.114 24.6867 154.049 24.7142C153.985 24.7405 153.918 24.7537 153.847 24.7537C153.776 24.7537 153.709 24.7405 153.645 24.7142C153.58 24.6867 153.523 24.6484 153.474 24.5994C153.424 24.5492 153.385 24.493 153.359 24.4272C153.332 24.3626 153.318 24.2956 153.318 24.2251C153.318 24.1557 153.332 24.0875 153.359 24.0229C153.385 23.9584 153.424 23.9009 153.474 23.8519C153.523 23.8029 153.58 23.7646 153.645 23.7371C153.709 23.7108 153.776 23.6976 153.847 23.6976C153.918 23.6976 153.985 23.7108 154.049 23.7371C154.114 23.7646 154.171 23.8029 154.22 23.8519C154.27 23.9009 154.309 23.9584 154.335 24.0229C154.362 24.0875 154.376 24.1557 154.376 24.2251Z" fill="#8CB9C4"/>
  <mask id="mask4_619_2138" style="mask-type:luminance" maskUnits="userSpaceOnUse" x="150" y="21" width="8" height="7">
    <path d="M150.632 21.0103H157.062V27.4399H150.632V21.0103Z" fill="white"/>
  </mask>
  <g mask="url(#mask4_619_2138)">
    <path d="M156.121 21.9515C155.514 21.3451 154.706 21.0103 153.847 21.0103C152.987 21.0103 152.18 21.3451 151.574 21.9515C150.966 22.5591 150.632 23.3663 150.632 24.2251C150.632 25.085 150.966 25.8923 151.574 26.4998C152.18 27.1062 152.987 27.4399 153.847 27.4399C154.706 27.4399 155.514 27.1062 156.121 26.4998C156.727 25.8923 157.062 25.085 157.062 24.2251C157.062 23.3663 156.727 22.5591 156.121 21.9515ZM156.059 26.4364C155.468 27.0261 154.683 27.3514 153.847 27.3514C153.011 27.3514 152.227 27.0261 151.636 26.4364C151.046 25.8468 150.721 25.0611 150.721 24.2251C150.721 23.3903 151.046 22.6045 151.636 22.0149C152.227 21.4241 153.011 21.1 153.847 21.1C154.683 21.1 155.468 21.4241 156.059 22.0149C156.648 22.6045 156.973 23.3903 156.973 24.2251C156.973 25.0611 156.648 25.8468 156.059 26.4364ZM155.748 22.3258C155.24 21.8187 154.565 21.5389 153.847 21.5389C153.128 21.5389 152.454 21.8187 151.947 22.3258C151.44 22.8329 151.161 23.5075 151.161 24.2251C151.161 24.9439 151.44 25.6184 151.947 26.1255C152.454 26.6326 153.128 26.9125 153.847 26.9125C154.565 26.9125 155.24 26.6326 155.748 26.1255C156.255 25.6184 156.533 24.9439 156.533 24.2251C156.533 23.5075 156.255 22.8329 155.748 22.3258ZM155.684 26.0633C155.194 26.5537 154.542 26.8228 153.847 26.8228C153.152 26.8228 152.5 26.5537 152.01 26.0633C151.52 25.5729 151.249 24.9199 151.249 24.2251C151.249 23.5314 151.52 22.8784 152.01 22.388C152.5 21.8977 153.152 21.6274 153.847 21.6274C154.542 21.6274 155.194 21.8977 155.684 22.388C156.175 22.8784 156.445 23.5314 156.445 24.2251C156.445 24.9199 156.175 25.5729 155.684 26.0633ZM155.373 22.699C154.965 22.2924 154.424 22.0675 153.847 22.0675C153.271 22.0675 152.728 22.2924 152.321 22.699C151.913 23.1068 151.69 23.6486 151.69 24.2251C151.69 24.8027 151.913 25.3445 152.321 25.7523C152.728 26.159 153.271 26.3838 153.847 26.3838C154.424 26.3838 154.965 26.159 155.373 25.7523C155.781 25.3445 156.005 24.8027 156.005 24.2251C156.005 23.6486 155.781 23.1068 155.373 22.699ZM155.311 25.689C154.92 26.08 154.4 26.2953 153.847 26.2953C153.293 26.2953 152.774 26.08 152.383 25.689C151.993 25.2979 151.778 24.7788 151.778 24.2251C151.778 23.6725 151.993 23.1523 152.383 22.7624C152.774 22.3713 153.293 22.156 153.847 22.156C154.4 22.156 154.92 22.3713 155.311 22.7624C155.701 23.1523 155.916 23.6725 155.916 24.2251C155.916 24.7788 155.701 25.2979 155.311 25.689ZM153.847 22.5961C152.949 22.5961 152.217 23.3269 152.217 24.2251C152.217 25.1245 152.949 25.8552 153.847 25.8552C154.745 25.8552 155.476 25.1245 155.476 24.2251C155.476 23.3269 154.745 22.5961 153.847 22.5961ZM153.847 25.7667C152.998 25.7667 152.307 25.0754 152.307 24.2251C152.307 23.3759 152.998 22.6846 153.847 22.6846C154.696 22.6846 155.388 23.3759 155.388 24.2251C155.388 25.0754 154.696 25.7667 153.847 25.7667ZM153.847 23.1248C153.24 23.1248 152.746 23.6187 152.746 24.2251C152.746 24.8326 153.24 25.3266 153.847 25.3266C154.455 25.3266 154.949 24.8326 154.949 24.2251C154.949 23.6187 154.455 23.1248 153.847 23.1248ZM153.847 25.2381C153.289 25.2381 152.834 24.7836 152.834 24.2251C152.834 23.6677 153.289 23.2133 153.847 23.2133C154.406 23.2133 154.859 23.6677 154.859 24.2251C154.859 24.7836 154.406 25.2381 153.847 25.2381ZM153.847 23.6522C153.531 23.6522 153.274 23.9093 153.274 24.2251C153.274 24.5408 153.531 24.7979 153.847 24.7979C154.163 24.7979 154.42 24.5408 154.42 24.2251C154.42 23.9093 154.163 23.6522 153.847 23.6522ZM153.847 24.7094C153.58 24.7094 153.363 24.493 153.363 24.2251C153.363 23.9584 153.58 23.7419 153.847 23.7419C154.114 23.7419 154.332 23.9584 154.332 24.2251C154.332 24.493 154.114 24.7094 153.847 24.7094Z" fill="#231F20"/>
  </g>
  <mask id="mask5_619_2138" style="mask-type:luminance" maskUnits="userSpaceOnUse" x="60" y="43" width="13" height="12">
    <path d="M60.7739 43.2413H72.0126V54.48H60.7739V43.2413Z" fill="white"/>
  </mask>
  <g mask="url(#mask5_619_2138)">
    <mask id="mask6_619_2138" style="mask-type:luminance" maskUnits="userSpaceOnUse" x="60" y="43" width="13" height="12">
      <path d="M66.3939 43.2413C63.2903 43.2413 60.7739 45.7576 60.7739 48.8612C60.7739 51.9648 63.2903 54.48 66.3939 54.48C69.4975 54.48 72.0126 51.9648 72.0126 48.8612C72.0126 45.7576 69.4975 43.2413 66.3939 43.2413Z" fill="white"/>
    </mask>
    <g mask="url(#mask6_619_2138)">
      <path d="M60.7739 43.2413H72.0126V54.48H60.7739V43.2413Z" fill="#FEFEFE"/>
    </g>
  </g>
  <path d="M64.1155 53.263L66.059 50.5422H65.3857L63.8512 52.7416L62.3167 50.5422H61.6362L63.5869 53.2714V55.6825H64.1155V53.263Z" fill="black"/>
  <path d="M69.4203 54.0046C69.4203 54.3371 69.2995 54.6169 69.0651 54.8514C68.8235 55.0929 68.5436 55.2066 68.2111 55.2066C67.8786 55.2066 67.5916 55.0929 67.3572 54.8514C67.1156 54.6169 67.002 54.3371 67.002 54.0046C67.002 53.6721 67.1156 53.3922 67.3572 53.1507C67.5916 52.9162 67.8786 52.7954 68.2111 52.7954C68.5436 52.7954 68.8235 52.9162 69.0651 53.1507C69.2995 53.3922 69.4203 53.6721 69.4203 54.0046ZM69.9501 54.0046C69.9501 53.5286 69.7767 53.1196 69.4358 52.7799C69.0962 52.439 68.6871 52.2656 68.2111 52.2656C67.728 52.2656 67.3189 52.439 66.9793 52.7799C66.6384 53.1196 66.4722 53.5286 66.4722 54.0046C66.4722 54.4878 66.6384 54.8968 66.9793 55.2293C67.3189 55.5689 67.7351 55.7352 68.2111 55.7352C68.68 55.7352 69.0962 55.5689 69.4358 55.2293C69.7767 54.8968 69.9501 54.4878 69.9501 54.0046Z" fill="black"/>
  <path d="M73.1537 55.1157V55.6826H73.6823V52.3566H73.1537V53.7475C73.1537 54.2163 73.0628 54.5715 72.8882 54.8358C72.7219 55.093 72.4277 55.221 72.0187 55.221C71.7926 55.221 71.6264 55.1456 71.5283 54.9949C71.4291 54.843 71.3836 54.6541 71.3836 54.4352V52.3566H70.855V54.4352C70.855 54.8203 70.9531 55.1384 71.1647 55.3872C71.3764 55.63 71.6635 55.7508 72.0414 55.7508C72.533 55.7508 72.9037 55.5391 73.1537 55.1157Z" fill="black"/>
  <path d="M76.4102 53.0443V52.3566C76.3038 52.3111 76.1902 52.2884 76.0766 52.2884C75.6986 52.2884 75.4271 52.5001 75.2525 52.9079L75.2298 53.0443V52.3566H74.7012V55.6826H75.2298V54.019C75.2298 53.7475 75.2908 53.5059 75.42 53.2858C75.4798 53.1734 75.5635 53.0742 75.6615 52.9988C75.7596 52.9235 75.8804 52.878 76.0168 52.878C76.1531 52.878 76.2811 52.939 76.4102 53.0443Z" fill="black"/>
  <path d="M79.9229 53.7929L80.8605 51.426L81.791 53.7929H79.9229ZM83.1138 55.6825L80.8605 50.187L78.6001 55.6825H79.1754L79.7267 54.2844H81.9871L82.5385 55.6825H83.1138Z" fill="black"/>
  <path d="M84.2825 55.6825V50.5422H83.7539V55.6825H84.2825Z" fill="black"/>
  <path d="M88.2876 53.7929L89.2253 51.426L90.1557 53.7929H88.2876ZM91.4785 55.6825L89.2253 50.187L86.9648 55.6825H87.5401L88.0915 54.2844H90.3519L90.9032 55.6825H91.4785Z" fill="black"/>
  <path d="M94.7639 54.0189C94.7639 54.3442 94.6503 54.6313 94.4242 54.8657C94.197 55.1085 93.9171 55.2293 93.593 55.2293C93.2593 55.2293 92.9807 55.1085 92.7534 54.8657C92.5262 54.6313 92.4209 54.3442 92.4209 54.0189C92.4209 53.702 92.5262 53.4149 92.7534 53.1733C92.9807 52.9306 93.2593 52.8098 93.593 52.8098C93.9171 52.8098 94.197 52.9306 94.4242 53.1733C94.6503 53.4149 94.7639 53.702 94.7639 54.0189ZM95.2937 55.6825V50.0135H94.7639V52.9306C94.734 52.8851 94.6957 52.848 94.6658 52.8098C94.3489 52.4617 93.9626 52.2811 93.5093 52.2811C93.0476 52.2811 92.6625 52.4617 92.3456 52.8098C92.043 53.1578 91.8911 53.5585 91.8911 54.0189C91.8911 54.4877 92.043 54.8884 92.3456 55.2293C92.6625 55.5845 93.0476 55.7579 93.5093 55.7579C93.9626 55.7579 94.3489 55.5845 94.6658 55.2293C94.6957 55.1982 94.734 55.1611 94.7639 55.1156V55.6825H95.2937Z" fill="black"/>
  <path d="M100.644 55.667H101.173V53.5884C101.173 53.2176 101.075 52.9079 100.894 52.6663C100.803 52.5455 100.682 52.4546 100.546 52.3792C100.402 52.3039 100.213 52.2656 99.9862 52.2656C99.7518 52.2656 99.5473 52.3338 99.3739 52.4546C99.2148 52.5754 99.0869 52.7189 98.9804 52.9007C98.9433 52.817 98.8979 52.7416 98.8453 52.6663C98.7544 52.5455 98.6336 52.4546 98.4972 52.3792C98.3537 52.3039 98.1647 52.2656 97.9375 52.2656C97.7031 52.2656 97.4998 52.3338 97.3252 52.4546C97.1745 52.5682 97.0537 52.7046 96.9544 52.878V52.341H96.4258V55.667H96.9544V53.9663C96.9771 53.702 97.0453 53.4676 97.1589 53.2786C97.2343 53.1423 97.3479 53.0215 97.4842 52.9306C97.6206 52.8397 97.7641 52.7954 97.9232 52.7954C98.0739 52.7954 98.1946 52.8253 98.27 52.8708C98.4817 53.0059 98.5953 53.2487 98.5953 53.5884V55.667H99.1251V53.5884C99.1251 53.5513 99.1168 53.5059 99.1168 53.4676C99.1395 53.3994 99.1694 53.3396 99.2076 53.2786C99.283 53.1423 99.3966 53.0215 99.533 52.9306C99.6693 52.8397 99.8128 52.7954 99.9707 52.7954C100.123 52.7954 100.243 52.8253 100.319 52.8708C100.53 53.0059 100.644 53.2487 100.644 53.5884V55.667Z" fill="black"/>
  <path d="M102.728 51.2072C102.66 51.1474 102.576 51.1091 102.487 51.1091C102.396 51.1091 102.312 51.1474 102.252 51.2072C102.184 51.2754 102.153 51.3591 102.153 51.4488C102.153 51.5397 102.184 51.6234 102.252 51.6832C102.312 51.7514 102.396 51.7825 102.487 51.7825C102.576 51.7825 102.66 51.7514 102.728 51.6832C102.788 51.6234 102.826 51.5397 102.826 51.4488C102.826 51.3591 102.788 51.2754 102.728 51.2072ZM102.758 55.6826V52.3565H102.229V55.6826H102.758Z" fill="black"/>
  <path d="M104.397 55.2137C104.269 55.1228 104.171 54.9721 104.118 54.7532H103.559C103.672 55.4409 104.11 55.7806 104.882 55.7806C105.062 55.7806 105.23 55.7662 105.388 55.7208C105.547 55.6753 105.683 55.6143 105.811 55.5318C106.068 55.3572 106.197 55.0929 106.197 54.7377C106.197 54.3753 106.031 54.1182 105.683 53.9519C105.54 53.8838 105.381 53.8299 105.207 53.7929C105.041 53.7546 104.882 53.7091 104.738 53.6637C104.586 53.6182 104.466 53.5584 104.368 53.4903C104.269 53.4221 104.217 53.3169 104.217 53.165C104.217 53.0143 104.277 52.9006 104.397 52.8325C104.518 52.7571 104.662 52.7189 104.821 52.7189C104.987 52.7189 105.131 52.7571 105.244 52.8169C105.358 52.8779 105.449 52.9987 105.501 53.1805H106.068C106 52.848 105.857 52.6136 105.645 52.4844C105.426 52.3493 105.162 52.2811 104.836 52.2811C104.518 52.2811 104.24 52.372 104.005 52.5383C103.778 52.7117 103.657 52.9616 103.657 53.2941C103.657 53.452 103.703 53.5967 103.785 53.7175C103.876 53.8455 104.005 53.9436 104.171 54.0189C104.322 54.0871 104.481 54.1409 104.647 54.1863C104.814 54.2234 104.973 54.2689 105.123 54.3143C105.463 54.4279 105.638 54.5942 105.638 54.8059C105.638 55.1682 105.396 55.3429 104.912 55.3429C104.707 55.3429 104.534 55.3046 104.397 55.2137Z" fill="black"/>
  <path d="M107.435 55.2137C107.307 55.1228 107.209 54.9721 107.155 54.7532H106.597C106.709 55.4409 107.148 55.7806 107.919 55.7806C108.1 55.7806 108.267 55.7662 108.425 55.7208C108.584 55.6753 108.721 55.6143 108.849 55.5318C109.106 55.3572 109.235 55.0929 109.235 54.7377C109.235 54.3753 109.069 54.1182 108.721 53.9519C108.577 53.8838 108.418 53.8299 108.245 53.7929C108.079 53.7546 107.919 53.7091 107.776 53.6637C107.624 53.6182 107.503 53.5584 107.405 53.4903C107.307 53.4221 107.254 53.3169 107.254 53.165C107.254 53.0143 107.314 52.9006 107.435 52.8325C107.556 52.7571 107.699 52.7189 107.858 52.7189C108.025 52.7189 108.168 52.7571 108.282 52.8169C108.395 52.8779 108.486 52.9987 108.539 53.1805H109.106C109.038 52.848 108.894 52.6136 108.682 52.4844C108.464 52.3493 108.199 52.2811 107.874 52.2811C107.556 52.2811 107.277 52.372 107.043 52.5383C106.816 52.7117 106.695 52.9616 106.695 53.2941C106.695 53.452 106.74 53.5967 106.823 53.7175C106.914 53.8455 107.043 53.9436 107.209 54.0189C107.36 54.0871 107.519 54.1409 107.685 54.1863C107.851 54.2234 108.01 54.2689 108.161 54.3143C108.501 54.4279 108.675 54.5942 108.675 54.8059C108.675 55.1682 108.434 55.3429 107.949 55.3429C107.745 55.3429 107.571 55.3046 107.435 55.2137Z" fill="black"/>
  <path d="M110.534 51.2072C110.466 51.1474 110.382 51.1091 110.292 51.1091C110.201 51.1091 110.118 51.1474 110.058 51.2072C109.99 51.2754 109.958 51.3591 109.958 51.4488C109.958 51.5397 109.99 51.6234 110.058 51.6832C110.118 51.7514 110.201 51.7825 110.292 51.7825C110.382 51.7825 110.466 51.7514 110.534 51.6832C110.594 51.6234 110.632 51.5397 110.632 51.4488C110.632 51.3591 110.594 51.2754 110.534 51.2072ZM110.564 55.6826V52.3565H110.035V55.6826H110.564Z" fill="black"/>
  <path d="M114.448 54.0046C114.448 54.3371 114.327 54.6169 114.092 54.8514C113.851 55.0929 113.571 55.2066 113.238 55.2066C112.906 55.2066 112.619 55.0929 112.385 54.8514C112.143 54.6169 112.029 54.3371 112.029 54.0046C112.029 53.6721 112.143 53.3922 112.385 53.1507C112.619 52.9162 112.906 52.7954 113.238 52.7954C113.571 52.7954 113.851 52.9162 114.092 53.1507C114.327 53.3922 114.448 53.6721 114.448 54.0046ZM114.977 54.0046C114.977 53.5286 114.804 53.1196 114.463 52.7799C114.124 52.439 113.714 52.2656 113.238 52.2656C112.755 52.2656 112.346 52.439 112.007 52.7799C111.666 53.1196 111.5 53.5286 111.5 54.0046C111.5 54.4878 111.666 54.8968 112.007 55.2293C112.346 55.5689 112.762 55.7352 113.238 55.7352C113.707 55.7352 114.124 55.5689 114.463 55.2293C114.804 54.8968 114.977 54.4878 114.977 54.0046Z" fill="black"/>
  <path d="M118.182 55.6826H118.71V53.604C118.71 53.2177 118.604 52.9079 118.408 52.6735C118.302 52.5527 118.182 52.4618 118.037 52.3948C117.886 52.3267 117.697 52.2884 117.463 52.2884C117.221 52.2884 117.017 52.3566 116.835 52.4774C116.661 52.591 116.518 52.7417 116.411 52.9306V52.3566H115.883V55.6826H116.411V54.2917C116.411 53.8683 116.488 53.5358 116.646 53.2858C116.737 53.1507 116.85 53.0371 116.994 52.9462C117.13 52.8625 117.319 52.817 117.546 52.817C117.772 52.817 117.932 52.9007 118.03 53.0514C118.128 53.2033 118.182 53.3923 118.182 53.604V55.6826Z" fill="black"/>
  <path d="M122.298 53.1351V51.0481H123.492C123.802 51.0481 124.052 51.1473 124.241 51.3363C124.423 51.5325 124.521 51.774 124.521 52.0766C124.521 52.3864 124.423 52.6363 124.226 52.8397C124.029 53.037 123.788 53.1351 123.492 53.1351H122.298ZM125.05 52.0922C125.05 51.6377 124.883 51.2681 124.566 50.9727C124.248 50.6857 123.87 50.5422 123.417 50.5422H121.769V55.6825H122.298V53.6494H123.417C123.87 53.6494 124.257 53.5058 124.566 53.2176C124.883 52.9162 125.05 52.5455 125.05 52.0922Z" fill="black"/>
  <path d="M127.476 53.0443V52.3566C127.369 52.3111 127.256 52.2884 127.142 52.2884C126.764 52.2884 126.493 52.5001 126.318 52.9079L126.295 53.0443V52.3566H125.767V55.6826H126.295V54.019C126.295 53.7475 126.356 53.5059 126.485 53.2858C126.545 53.1734 126.629 53.0742 126.727 52.9988C126.825 52.9235 126.946 52.878 127.082 52.878C127.219 52.878 127.347 52.939 127.476 53.0443Z" fill="black"/>
  <path d="M130.837 54.0046C130.837 54.3371 130.716 54.6169 130.482 54.8514C130.24 55.0929 129.961 55.2066 129.628 55.2066C129.296 55.2066 129.009 55.0929 128.774 54.8514C128.533 54.6169 128.419 54.3371 128.419 54.0046C128.419 53.6721 128.533 53.3922 128.774 53.1507C129.009 52.9162 129.296 52.7954 129.628 52.7954C129.961 52.7954 130.24 52.9162 130.482 53.1507C130.716 53.3922 130.837 53.6721 130.837 54.0046ZM131.367 54.0046C131.367 53.5286 131.194 53.1196 130.853 52.7799C130.513 52.439 130.104 52.2656 129.628 52.2656C129.145 52.2656 128.736 52.439 128.396 52.7799C128.055 53.1196 127.889 53.5286 127.889 54.0046C127.889 54.4878 128.055 54.8968 128.396 55.2293C128.736 55.5689 129.152 55.7352 129.628 55.7352C130.097 55.7352 130.513 55.5689 130.853 55.2293C131.194 54.8968 131.367 54.4878 131.367 54.0046Z" fill="black"/>
  <path d="M135.38 53.5514C135.273 53.1806 135.07 52.878 134.775 52.6436C134.465 52.4092 134.125 52.2884 133.747 52.2884C133.27 52.2884 132.862 52.4618 132.537 52.8027C132.204 53.1423 132.045 53.5514 132.045 54.019C132.045 54.4962 132.204 54.8968 132.537 55.2437C132.689 55.4027 132.862 55.5319 133.074 55.6216C133.278 55.7125 133.49 55.758 133.702 55.758C133.914 55.758 134.103 55.7352 134.269 55.6754C134.797 55.4865 135.161 55.1313 135.35 54.5943H134.752C134.647 54.7832 134.51 54.9339 134.329 55.0404C134.148 55.154 133.959 55.2066 133.747 55.2066C133.422 55.2066 133.149 55.093 132.923 54.8586C132.696 54.6242 132.591 54.3443 132.591 54.019C132.591 53.7092 132.696 53.4294 132.923 53.1961C133.029 53.0897 133.149 52.9988 133.293 52.939C133.429 52.878 133.603 52.8397 133.8 52.8397C133.996 52.8397 134.185 52.9079 134.382 53.0371C134.571 53.1734 134.715 53.3397 134.805 53.5514H135.38Z" fill="black"/>
  <path d="M139.46 53.9436C139.46 53.4903 139.278 53.0968 138.93 52.7572C138.59 52.4319 138.183 52.2656 137.721 52.2656C137.238 52.2656 136.829 52.439 136.489 52.7799C136.148 53.1196 135.982 53.5286 135.982 54.0046C135.982 54.4878 136.148 54.8968 136.489 55.2293C136.648 55.3872 136.829 55.5091 137.04 55.5988C137.252 55.6897 137.502 55.7352 137.796 55.7352C138.092 55.7352 138.379 55.6443 138.666 55.4637C138.953 55.2819 139.164 55.0248 139.309 54.7078H138.704C138.583 54.8657 138.44 54.9877 138.265 55.0774C138.092 55.1683 137.91 55.2066 137.721 55.2066C137.434 55.2066 137.177 55.1157 136.949 54.9267C136.723 54.7449 136.58 54.5105 136.534 54.2235H139.46V53.9436ZM138.9 53.7702H136.542C136.572 53.6338 136.625 53.5059 136.701 53.3851C136.942 52.9916 137.283 52.7954 137.721 52.7954C138.001 52.7954 138.251 52.8851 138.47 53.0669C138.697 53.2559 138.832 53.4903 138.9 53.7702Z" fill="black"/>
  <path d="M140.803 55.2137C140.675 55.1228 140.577 54.9721 140.523 54.7532H139.965C140.077 55.4409 140.516 55.7806 141.288 55.7806C141.468 55.7806 141.636 55.7662 141.794 55.7208C141.953 55.6753 142.089 55.6143 142.217 55.5318C142.474 55.3572 142.603 55.0929 142.603 54.7377C142.603 54.3753 142.437 54.1182 142.089 53.9519C141.945 53.8838 141.786 53.8299 141.613 53.7929C141.447 53.7546 141.288 53.7091 141.144 53.6637C140.992 53.6182 140.871 53.5584 140.773 53.4903C140.675 53.4221 140.623 53.3169 140.623 53.165C140.623 53.0143 140.682 52.9006 140.803 52.8325C140.924 52.7571 141.068 52.7189 141.227 52.7189C141.393 52.7189 141.536 52.7571 141.65 52.8169C141.764 52.8779 141.855 52.9987 141.907 53.1805H142.474C142.406 52.848 142.262 52.6136 142.051 52.4844C141.832 52.3493 141.567 52.2811 141.242 52.2811C140.924 52.2811 140.645 52.372 140.411 52.5383C140.184 52.7117 140.063 52.9616 140.063 53.2941C140.063 53.452 140.108 53.5967 140.191 53.7175C140.282 53.8455 140.411 53.9436 140.577 54.0189C140.728 54.0871 140.887 54.1409 141.053 54.1863C141.219 54.2234 141.379 54.2689 141.529 54.3143C141.869 54.4279 142.043 54.5942 142.043 54.8059C142.043 55.1682 141.802 55.3429 141.318 55.3429C141.113 55.3429 140.94 55.3046 140.803 55.2137Z" fill="black"/>
  <path d="M143.841 55.2137C143.713 55.1228 143.615 54.9721 143.561 54.7532H143.002C143.115 55.4409 143.554 55.7806 144.325 55.7806C144.506 55.7806 144.673 55.7662 144.831 55.7208C144.99 55.6753 145.127 55.6143 145.254 55.5318C145.512 55.3572 145.641 55.0929 145.641 54.7377C145.641 54.3753 145.475 54.1182 145.127 53.9519C144.983 53.8838 144.824 53.8299 144.651 53.7929C144.484 53.7546 144.325 53.7091 144.182 53.6637C144.03 53.6182 143.909 53.5584 143.811 53.4903C143.713 53.4221 143.66 53.3169 143.66 53.165C143.66 53.0143 143.72 52.9006 143.841 52.8325C143.962 52.7571 144.105 52.7189 144.264 52.7189C144.43 52.7189 144.574 52.7571 144.688 52.8169C144.801 52.8779 144.892 52.9987 144.945 53.1805H145.512C145.443 52.848 145.3 52.6136 145.088 52.4844C144.869 52.3493 144.605 52.2811 144.28 52.2811C143.962 52.2811 143.683 52.372 143.449 52.5383C143.221 52.7117 143.101 52.9616 143.101 53.2941C143.101 53.452 143.146 53.5967 143.228 53.7175C143.319 53.8455 143.449 53.9436 143.615 54.0189C143.765 54.0871 143.925 54.1409 144.091 54.1863C144.257 54.2234 144.416 54.2689 144.567 54.3143C144.906 54.4279 145.081 54.5942 145.081 54.8059C145.081 55.1682 144.839 55.3429 144.355 55.3429C144.151 55.3429 143.977 55.3046 143.841 55.2137Z" fill="black"/>
  <path d="M146.94 51.2072C146.871 51.1474 146.788 51.1091 146.698 51.1091C146.607 51.1091 146.523 51.1474 146.464 51.2072C146.395 51.2754 146.364 51.3591 146.364 51.4488C146.364 51.5397 146.395 51.6234 146.464 51.6832C146.523 51.7514 146.607 51.7825 146.698 51.7825C146.788 51.7825 146.871 51.7514 146.94 51.6832C146.999 51.6234 147.038 51.5397 147.038 51.4488C147.038 51.3591 146.999 51.2754 146.94 51.2072ZM146.969 55.6826V52.3565H146.441V55.6826H146.969Z" fill="black"/>
  <path d="M150.432 55.6826H150.96V53.604C150.96 53.2177 150.854 52.9079 150.658 52.6735C150.552 52.5527 150.432 52.4618 150.287 52.3948C150.136 52.3267 149.947 52.2884 149.713 52.2884C149.471 52.2884 149.267 52.3566 149.085 52.4774C148.911 52.591 148.768 52.7417 148.661 52.9306V52.3566H148.133V55.6826H148.661V54.2917C148.661 53.8683 148.738 53.5358 148.896 53.2858C148.987 53.1507 149.1 53.0371 149.244 52.9462C149.38 52.8625 149.569 52.817 149.796 52.817C150.022 52.817 150.182 52.9007 150.28 53.0514C150.378 53.2033 150.432 53.3923 150.432 53.604V55.6826Z" fill="black"/>
  <path d="M154.67 54.0189C154.67 54.3442 154.557 54.6312 154.331 54.8657C154.103 55.1084 153.823 55.2292 153.498 55.2292C153.174 55.2292 152.894 55.1084 152.667 54.8657C152.441 54.6312 152.327 54.3526 152.327 54.0189C152.327 53.6948 152.441 53.4149 152.667 53.1733C152.894 52.9305 153.174 52.8098 153.498 52.8098C153.823 52.8098 154.103 52.9305 154.331 53.1733C154.557 53.4149 154.67 53.702 154.67 54.0189ZM152.312 56.1358H151.768C151.829 56.491 151.986 56.8008 152.259 57.0663C152.592 57.4059 152.999 57.5722 153.477 57.5722C153.944 57.5722 154.353 57.4059 154.693 57.0663C155.025 56.7338 155.2 56.3248 155.2 55.8488V52.3565H154.67V52.9162C154.64 52.8851 154.61 52.848 154.579 52.8098C154.247 52.4617 153.862 52.2811 153.423 52.2811C152.954 52.2811 152.569 52.4617 152.252 52.8098C151.949 53.1578 151.797 53.5584 151.797 54.0189C151.797 54.4877 151.949 54.8884 152.252 55.2292C152.569 55.5844 152.954 55.7579 153.423 55.7579C153.877 55.7579 154.262 55.5844 154.579 55.2292C154.61 55.1981 154.64 55.1611 154.67 55.1312V55.8488C154.67 56.1812 154.549 56.4611 154.315 56.6955C154.081 56.9299 153.801 57.0436 153.477 57.0436C153.143 57.0436 152.864 56.9299 152.63 56.6955C152.464 56.5293 152.357 56.3475 152.312 56.1358Z" fill="black"/>
  <path d="M159.203 53.7929L160.141 51.426L161.071 53.7929H159.203ZM162.394 55.6825L160.141 50.187L157.88 55.6825H158.456L159.007 54.2844H161.267L161.819 55.6825H162.394Z" fill="black"/>
  <path d="M163.51 55.2137C163.382 55.1228 163.284 54.9721 163.23 54.7532H162.671C162.784 55.4409 163.223 55.7806 163.994 55.7806C164.175 55.7806 164.342 55.7662 164.5 55.7208C164.659 55.6753 164.795 55.6143 164.923 55.5318C165.181 55.3572 165.31 55.0929 165.31 54.7377C165.31 54.3753 165.143 54.1182 164.795 53.9519C164.652 53.8838 164.493 53.8299 164.319 53.7929C164.153 53.7546 163.994 53.7091 163.851 53.6637C163.699 53.6182 163.578 53.5584 163.48 53.4903C163.382 53.4221 163.329 53.3169 163.329 53.165C163.329 53.0143 163.389 52.9006 163.51 52.8325C163.631 52.7571 163.774 52.7189 163.933 52.7189C164.099 52.7189 164.243 52.7571 164.357 52.8169C164.47 52.8779 164.561 52.9987 164.614 53.1805H165.181C165.112 52.848 164.969 52.6136 164.757 52.4844C164.538 52.3493 164.274 52.2811 163.949 52.2811C163.631 52.2811 163.352 52.372 163.117 52.5383C162.89 52.7117 162.769 52.9616 162.769 53.2941C162.769 53.452 162.815 53.5967 162.897 53.7175C162.988 53.8455 163.117 53.9436 163.284 54.0189C163.434 54.0871 163.593 54.1409 163.76 54.1863C163.926 54.2234 164.085 54.2689 164.236 54.3143C164.575 54.4279 164.75 54.5942 164.75 54.8059C164.75 55.1682 164.508 55.3429 164.024 55.3429C163.82 55.3429 163.646 55.3046 163.51 55.2137Z" fill="black"/>
  <path d="M166.548 55.2137C166.42 55.1228 166.322 54.9721 166.268 54.7532H165.709C165.822 55.4409 166.261 55.7806 167.032 55.7806C167.213 55.7806 167.38 55.7662 167.538 55.7208C167.697 55.6753 167.834 55.6143 167.962 55.5318C168.219 55.3572 168.348 55.0929 168.348 54.7377C168.348 54.3753 168.182 54.1182 167.834 53.9519C167.69 53.8838 167.531 53.8299 167.358 53.7929C167.191 53.7546 167.032 53.7091 166.889 53.6637C166.737 53.6182 166.616 53.5584 166.518 53.4903C166.42 53.4221 166.367 53.3169 166.367 53.165C166.367 53.0143 166.427 52.9006 166.548 52.8325C166.669 52.7571 166.812 52.7189 166.971 52.7189C167.137 52.7189 167.281 52.7571 167.395 52.8169C167.508 52.8779 167.599 52.9987 167.652 53.1805H168.219C168.15 52.848 168.007 52.6136 167.795 52.4844C167.576 52.3493 167.312 52.2811 166.987 52.2811C166.669 52.2811 166.39 52.372 166.156 52.5383C165.928 52.7117 165.808 52.9616 165.808 53.2941C165.808 53.452 165.853 53.5967 165.936 53.7175C166.026 53.8455 166.156 53.9436 166.322 54.0189C166.473 54.0871 166.632 54.1409 166.798 54.1863C166.964 54.2234 167.123 54.2689 167.274 54.3143C167.613 54.4279 167.788 54.5942 167.788 54.8059C167.788 55.1682 167.547 55.3429 167.062 55.3429C166.858 55.3429 166.684 55.3046 166.548 55.2137Z" fill="black"/>
  <path d="M169.646 51.2072C169.578 51.1474 169.494 51.1091 169.404 51.1091C169.314 51.1091 169.23 51.1474 169.17 51.2072C169.102 51.2754 169.071 51.3591 169.071 51.4488C169.071 51.5397 169.102 51.6234 169.17 51.6832C169.23 51.7514 169.314 51.7825 169.404 51.7825C169.494 51.7825 169.578 51.7514 169.646 51.6832C169.706 51.6234 169.744 51.5397 169.744 51.4488C169.744 51.3591 169.706 51.2754 169.646 51.2072ZM169.676 55.6826V52.3565H169.147V55.6826H169.676Z" fill="black"/>
  <path d="M171.315 55.2137C171.187 55.1228 171.089 54.9721 171.036 54.7532H170.477C170.589 55.4409 171.028 55.7806 171.8 55.7806C171.98 55.7806 172.148 55.7662 172.306 55.7208C172.465 55.6753 172.601 55.6143 172.729 55.5318C172.986 55.3572 173.115 55.0929 173.115 54.7377C173.115 54.3753 172.949 54.1182 172.601 53.9519C172.458 53.8838 172.299 53.8299 172.125 53.7929C171.959 53.7546 171.8 53.7091 171.656 53.6637C171.504 53.6182 171.384 53.5584 171.286 53.4903C171.187 53.4221 171.135 53.3169 171.135 53.165C171.135 53.0143 171.195 52.9006 171.315 52.8325C171.436 52.7571 171.58 52.7189 171.739 52.7189C171.905 52.7189 172.049 52.7571 172.162 52.8169C172.276 52.8779 172.367 52.9987 172.419 53.1805H172.986C172.918 52.848 172.775 52.6136 172.563 52.4844C172.344 52.3493 172.08 52.2811 171.754 52.2811C171.436 52.2811 171.158 52.372 170.923 52.5383C170.696 52.7117 170.575 52.9616 170.575 53.2941C170.575 53.452 170.621 53.5967 170.703 53.7175C170.794 53.8455 170.923 53.9436 171.089 54.0189C171.24 54.0871 171.399 54.1409 171.565 54.1863C171.732 54.2234 171.891 54.2689 172.041 54.3143C172.381 54.4279 172.556 54.5942 172.556 54.8059C172.556 55.1682 172.314 55.3429 171.83 55.3429C171.625 55.3429 171.452 55.3046 171.315 55.2137Z" fill="black"/>
  <path d="M173.461 52.8481H174.293V55.6826H174.822V52.8481H175.646V52.3565H174.822V51.0637H174.293V52.3565H173.461V52.8481Z" fill="black"/>
  <path d="M179.009 54.0189C179.009 54.3442 178.895 54.6312 178.669 54.8657C178.442 55.1084 178.162 55.2292 177.838 55.2292C177.504 55.2292 177.225 55.1084 176.998 54.8657C176.771 54.6312 176.666 54.3442 176.666 54.0189C176.666 53.702 176.771 53.4149 176.998 53.1733C177.225 52.9305 177.504 52.8098 177.838 52.8098C178.162 52.8098 178.442 52.9305 178.669 53.1733C178.895 53.4149 179.009 53.702 179.009 54.0189ZM179.538 55.6825V52.3565H179.009V52.9305C178.979 52.8851 178.94 52.848 178.91 52.8098C178.593 52.4617 178.207 52.2811 177.754 52.2811C177.292 52.2811 176.907 52.4617 176.59 52.8098C176.288 53.1578 176.136 53.5584 176.136 54.0189C176.136 54.4877 176.288 54.8884 176.59 55.2292C176.907 55.5844 177.292 55.7579 177.754 55.7579C178.207 55.7579 178.593 55.5844 178.91 55.2292C178.94 55.1981 178.979 55.1611 179.009 55.1156V55.6825H179.538Z" fill="black"/>
  <path d="M182.969 55.6826H183.498V53.604C183.498 53.2177 183.391 52.9079 183.195 52.6735C183.09 52.5527 182.969 52.4618 182.824 52.3948C182.674 52.3267 182.485 52.2884 182.25 52.2884C182.009 52.2884 181.804 52.3566 181.622 52.4774C181.449 52.591 181.305 52.7417 181.199 52.9306V52.3566H180.67V55.6826H181.199V54.2917C181.199 53.8683 181.276 53.5358 181.433 53.2858C181.524 53.1507 181.638 53.0371 181.781 52.9462C181.918 52.8625 182.107 52.817 182.334 52.817C182.56 52.817 182.719 52.9007 182.817 53.0514C182.915 53.2033 182.969 53.3923 182.969 53.604V55.6826Z" fill="black"/>
  <path d="M184.1 52.8481H184.933V55.6826H185.461V52.8481H186.285V52.3565H185.461V51.0637H184.933V52.3565H184.1V52.8481Z" fill="black"/>
  <path d="M82.4571 64.2805H81.157L81.8064 62.4506L82.4571 64.2805ZM84.3766 66.2455L82.2908 61.1052H81.3304L79.2446 66.2455H80.4609L80.8317 65.2098H82.7895L83.1603 66.2455H84.3766Z" fill="black"/>
  <path d="M87.8887 64.4085H88.6828C89.514 64.4085 90.2555 63.7961 90.2555 62.7532C90.2555 61.7785 89.514 61.1052 88.6828 61.1052H86.7549V66.2455H87.8887V64.4085ZM88.4938 61.9974C88.8263 61.9974 89.1744 62.2844 89.1744 62.7532C89.1744 63.2448 88.8263 63.5163 88.4938 63.5163H87.8887V61.9974H88.4938Z" fill="black"/>
  <path d="M92.7028 63.7507C92.8762 63.7507 93.0437 63.8033 93.1561 63.9397H93.1716V62.9123C93.0807 62.8669 92.93 62.8358 92.832 62.8358C92.4158 62.8358 92.1287 63.0702 91.9541 63.3201V62.9123H90.8203V66.2455H91.9541V64.5819C91.9541 64.1812 92.2794 63.7507 92.7028 63.7507Z" fill="black"/>
  <path d="M95.4155 65.4598C94.8031 65.4598 94.6369 65.0137 94.6369 64.5903C94.6369 64.1741 94.8187 63.728 95.4155 63.728C96.0051 63.728 96.1869 64.1741 96.1869 64.5903C96.1869 65.0137 96.0206 65.4598 95.4155 65.4598ZM95.4155 62.8442C94.3726 62.8442 93.5103 63.539 93.5103 64.5819C93.5103 65.6488 94.3498 66.3137 95.4155 66.3137C96.4739 66.3137 97.3135 65.6488 97.3135 64.5819C97.3135 63.539 96.4512 62.8442 95.4155 62.8442Z" fill="black"/>
  <path d="M99.7295 63.7208C100.123 63.7208 100.373 63.9253 100.387 64.2494H101.514C101.461 63.4792 100.774 62.8358 99.6924 62.8358C98.5814 62.8358 97.8398 63.6299 97.8398 64.5819C97.8398 65.5351 98.5359 66.3209 99.6924 66.3209C100.705 66.3209 101.378 65.7468 101.491 65.0053H100.387C100.35 65.3079 100.078 65.4598 99.7295 65.4598C99.2009 65.4598 99.0502 64.9754 99.0502 64.5903C99.0502 64.2123 99.2164 63.7208 99.7295 63.7208Z" fill="black"/>
  <path d="M103.916 65.4598C103.304 65.4598 103.138 65.0137 103.138 64.5903C103.138 64.1741 103.32 63.728 103.916 63.728C104.506 63.728 104.688 64.1741 104.688 64.5903C104.688 65.0137 104.522 65.4598 103.916 65.4598ZM103.916 62.8442C102.874 62.8442 102.011 63.539 102.011 64.5819C102.011 65.6488 102.851 66.3137 103.916 66.3137C104.975 66.3137 105.814 65.6488 105.814 64.5819C105.814 63.539 104.952 62.8442 103.916 62.8442Z" fill="black"/>
  <path d="M109.94 64.3559C109.94 63.4481 109.576 62.8358 108.685 62.8358C108.246 62.8358 107.891 63.0331 107.664 63.3201V62.9123H106.53V66.2455H107.664V64.5819C107.664 64.1286 107.943 63.7507 108.299 63.7507C108.654 63.7507 108.806 63.9624 108.806 64.3559V66.2455H109.94V64.3559Z" fill="black"/>
  <path d="M114.141 64.3559C114.141 63.4481 113.777 62.8358 112.886 62.8358C112.447 62.8358 112.092 63.0331 111.865 63.3201V62.9123H110.731V66.2455H111.865V64.5819C111.865 64.1286 112.145 63.7507 112.5 63.7507C112.855 63.7507 113.007 63.9624 113.007 64.3559V66.2455H114.141V64.3559Z" fill="black"/>
  <path d="M115.961 64.1812C115.961 64.1812 115.998 63.5617 116.709 63.5617C117.397 63.5617 117.45 64.1812 117.45 64.1812H115.961ZM118.538 64.5065C118.538 63.4409 117.7 62.8358 116.687 62.8358C115.567 62.8358 114.743 63.539 114.743 64.5819C114.743 65.6403 115.537 66.3209 116.687 66.3209C117.57 66.3209 118.281 65.8831 118.478 65.0053H117.322C117.313 65.2481 117.065 65.5124 116.664 65.5124C116.218 65.5124 115.945 65.1045 115.945 64.7182H118.531C118.531 64.6501 118.538 64.5747 118.538 64.5065Z" fill="black"/>
  <path d="M120.955 63.7208C121.349 63.7208 121.599 63.9253 121.613 64.2494H122.74C122.687 63.4792 121.999 62.8358 120.918 62.8358C119.807 62.8358 119.065 63.6299 119.065 64.5819C119.065 65.5351 119.761 66.3209 120.918 66.3209C121.931 66.3209 122.603 65.7468 122.717 65.0053H121.613C121.576 65.3079 121.303 65.4598 120.955 65.4598C120.426 65.4598 120.276 64.9754 120.276 64.5903C120.276 64.2123 120.442 63.7208 120.955 63.7208Z" fill="black"/>
  <path d="M124.855 63.7889H125.459V62.9122H124.855V61.6421H123.728V62.9122H123.123V63.7889H123.728V66.2454H124.855V63.7889Z" fill="black"/>
  <path d="M127.196 64.4085H127.99C128.822 64.4085 129.563 63.7961 129.563 62.7532C129.563 61.7785 128.822 61.1052 127.99 61.1052H126.062V66.2455H127.196V64.4085ZM127.801 61.9974C128.134 61.9974 128.482 62.2844 128.482 62.7532C128.482 63.2448 128.134 63.5163 127.801 63.5163H127.196V61.9974H127.801Z" fill="black"/>
  <path d="M132.925 64.2805H131.625L132.275 62.4506L132.925 64.2805ZM134.845 66.2455L132.759 61.1052H131.799L129.713 66.2455H130.929L131.3 65.2098H133.258L133.629 66.2455H134.845Z" fill="black"/>
  <path d="M136.839 66.2455H137.973V63.789L139.871 61.1052H138.517L137.406 62.8812L136.295 61.1052H134.942L136.839 63.789V66.2455Z" fill="black"/>
  <path d="M143.405 64.4085H144.199C145.03 64.4085 145.772 63.7961 145.772 62.7532C145.772 61.7785 145.03 61.1052 144.199 61.1052H142.271V66.2455H143.405V64.4085ZM144.01 61.9974C144.342 61.9974 144.69 62.2844 144.69 62.7532C144.69 63.2448 144.342 63.5163 144.01 63.5163H143.405V61.9974H144.01Z" fill="black"/>
  <path d="M148.218 63.7507C148.392 63.7507 148.559 63.8033 148.672 63.9397H148.687V62.9123C148.596 62.8669 148.446 62.8358 148.348 62.8358C147.931 62.8358 147.644 63.0702 147.47 63.3201V62.9123H146.336V66.2455H147.47V64.5819C147.47 64.1812 147.795 63.7507 148.218 63.7507Z" fill="black"/>
  <path d="M150.932 65.4598C150.319 65.4598 150.153 65.0137 150.153 64.5903C150.153 64.1741 150.335 63.728 150.932 63.728C151.521 63.728 151.703 64.1741 151.703 64.5903C151.703 65.0137 151.537 65.4598 150.932 65.4598ZM150.932 62.8442C149.889 62.8442 149.026 63.539 149.026 64.5819C149.026 65.6488 149.866 66.3137 150.932 66.3137C151.99 66.3137 152.83 65.6488 152.83 64.5819C152.83 63.539 151.967 62.8442 150.932 62.8442Z" fill="black"/>
  <path d="M156.153 64.5819C156.153 65.0208 155.813 65.4143 155.359 65.4143C154.906 65.4143 154.566 65.0208 154.566 64.5819C154.566 64.1442 154.906 63.7507 155.359 63.7507C155.813 63.7507 156.153 64.1442 156.153 64.5819ZM157.287 60.5765H156.153V63.3201C155.858 62.9577 155.435 62.8358 155.011 62.8358C154.066 62.8358 153.356 63.6598 153.356 64.5819C153.356 65.5052 154.066 66.3209 155.011 66.3209C155.435 66.3209 155.926 66.1845 156.153 65.8449V66.2455H157.287V60.5765Z" fill="black"/>
  <path d="M158.117 64.8091C158.117 65.7085 158.479 66.3209 159.371 66.3209C159.81 66.3209 160.165 66.1247 160.393 65.8377V66.2455H161.526V62.9123H160.393V64.5819C160.393 65.028 160.113 65.4143 159.758 65.4143C159.402 65.4143 159.25 65.1942 159.25 64.8091V62.9123H158.117V64.8091Z" fill="black"/>
  <path d="M164.132 63.7208C164.525 63.7208 164.775 63.9253 164.79 64.2494H165.916C165.864 63.4792 165.176 62.8358 164.095 62.8358C162.984 62.8358 162.242 63.6299 162.242 64.5819C162.242 65.5351 162.938 66.3209 164.095 66.3209C165.108 66.3209 165.78 65.7468 165.894 65.0053H164.79C164.753 65.3079 164.48 65.4598 164.132 65.4598C163.603 65.4598 163.453 64.9754 163.453 64.5903C163.453 64.2123 163.619 63.7208 164.132 63.7208Z" fill="black"/>
  <path d="M168.031 63.7889H168.635V62.9122H168.031V61.6421H166.904V62.9122H166.299V63.7889H166.904V66.2454H168.031V63.7889Z" fill="black"/>
</svg>